#!OML:ASF E:\pregnant2\Project 1\Capture day 1\Session 1\pregnant2.ASF
:FULLY-SPECIFIED
:DEGREES
1470
root 5.5101 17.0976 12.8742 -328.554 -22.11 0.429225
lowerback -15.0216 0.37748 -2.71069
upperback -16.4708 0.415038 -0.154758
thorax -9.52818 0.364312 1.38927
lowerneck -9.3609 -11.7561 -17.0489
upperneck 31.9684 -17.3816 9.86177
head 15.2007 -8.61483 3.88499
rclavicle 2.58172e-014 1.72943e-014
rhumerus -87.6788 36.0756 -108.964
rradius 78.1766
rwrist -12.109
rhand 15.6715 -3.6667
rfingers 7.12502
rthumb 40.4833 -28.7451
lclavicle 2.58172e-014 1.72943e-014
lhumerus -103.428 -34.693 124.492
lradius 86.8419
lwrist 15.8425
lhand 14.7298 25.3723
lfingers 7.12502
lthumb 39.5973 50.7186
rfemur -51.0362 13.4009 7.13025
rtibia 36.6074
rfoot -15.3909 -17.3355
rtoes -1.61005
lfemur -43.4395 -6.70853 -23.6721
ltibia 32.2263
lfoot -13.4569 17.134
ltoes -15.2704
1471
root 5.52087 17.1063 12.8936 -329.099 -22.0123 0.583351
lowerback -14.5006 0.364585 -2.41402
upperback -16.3817 0.360851 -0.241171
thorax -9.69354 0.301218 1.12451
lowerneck -9.17574 -11.8306 -17.199
upperneck 31.8291 -17.5016 9.92558
head 15.1425 -8.68488 3.91606
rclavicle 5.86725e-014 2.68856e-014
rhumerus -87.0467 36.2318 -108.717
rradius 78.3927
rwrist -11.3977
rhand 15.1844 -3.88008
rfingers 7.12502
rthumb 40.0252 -29.0985
lclavicle 5.86725e-014 2.68856e-014
lhumerus -102.577 -34.8989 123.691
lradius 87.3367
lwrist 17.0113
lhand 15.0089 26.0171
lfingers 7.12502
lthumb 39.86 51.2852
rfemur -50.2453 13.247 7.18904
rtibia 36.3129
rfoot -15.3262 -17.2228
rtoes -1.74624
lfemur -42.7239 -7.19269 -23.7176
ltibia 31.9652
lfoot -13.2982 17.4934
ltoes -15.2477
1472
root 5.50576 17.1154 12.9006 -329.03 -22.2382 0.481548
lowerback -14.5506 0.401832 -2.40454
upperback -16.3985 0.408281 -0.229273
thorax -9.68832 0.323795 1.13524
lowerneck -9.05121 -11.9275 -17.323
upperneck 31.687 -17.6557 10.0032
head 15.1021 -8.76158 3.93775
rclavicle -4.3596e-014 -1.28713e-014
rhumerus -86.1641 36.2782 -108.275
rradius 78.4271
rwrist -10.4362
rhand 14.8725 -3.50025
rfingers 7.12502
rthumb 39.7316 -28.8067
lclavicle -4.3596e-014 -1.28713e-014
lhumerus -101.672 -35.166 122.822
lradius 87.7563
lwrist 17.6467
lhand 15.1945 26.825
lfingers 7.12502
lthumb 40.0347 52.0405
rfemur -50.183 13.5667 7.12619
rtibia 36.0336
rfoot -15.2418 -17.2851
rtoes -1.75954
lfemur -42.6053 -7.16929 -23.5956
ltibia 31.7977
lfoot -13.2386 17.7445
ltoes -15.2222
1473
root 5.49314 17.1207 12.906 -328.798 -22.2331 0.534864
lowerback -14.7926 0.322858 -2.44989
upperback -16.4967 0.307331 -0.197679
thorax -9.6722 0.277871 1.19003
lowerneck -8.89431 -11.9883 -17.4551
upperneck 31.582 -17.7386 10.011
head 15.0511 -8.81872 3.94962
rclavicle -9.41742e-015 -2.44008e-014
rhumerus -85.3867 36.3063 -107.714
rradius 78.5963
rwrist -9.3711
rhand 14.8423 -3.24195
rfingers 7.12502
rthumb 39.7032 -28.5568
lclavicle -9.41742e-015 -2.44008e-014
lhumerus -100.784 -35.3232 122
lradius 88.0229
lwrist 17.5888
lhand 15.393 27.584
lfingers 7.12502
lthumb 40.2215 52.7428
rfemur -50.3298 13.6886 6.92769
rtibia 35.8189
rfoot -15.222 -17.4468
rtoes -1.55038
lfemur -42.7497 -7.36642 -23.4892
ltibia 31.585
lfoot -13.0756 17.8948
ltoes -15.2648
1474
root 5.47968 17.1255 12.9124 -328.554 -22.289 0.51238
lowerback -15.0742 0.271436 -2.45475
upperback -16.5718 0.242558 -0.147014
thorax -9.6076 0.246485 1.24499
lowerneck -8.70249 -12.0278 -17.6096
upperneck 31.4597 -17.8021 10.0571
head 14.9887 -8.86765 3.98717
rclavicle 3.8266e-015 5.1684e-015
rhumerus -84.4078 36.3394 -107.067
rradius 78.6182
rwrist -8.29693
rhand 14.8228 -3.03478
rfingers 7.12502
rthumb 39.6848 -28.3552
lclavicle 3.8266e-015 5.1684e-015
lhumerus -99.8925 -35.4241 121.125
lradius 88.077
lwrist 16.6327
lhand 15.5563 27.8855
lfingers 7.12502
lthumb 40.375 52.9973
rfemur -50.487 13.8169 6.81656
rtibia 35.609
rfoot -15.1402 -17.5541
rtoes -1.6374
lfemur -42.9115 -7.50932 -23.3328
ltibia 31.4553
lfoot -12.9655 18.1045
ltoes -15.2477
1475
root 5.46461 17.132 12.9185 -328.459 -22.3705 0.45303
lowerback -15.1782 0.262477 -2.43257
upperback -16.5889 0.229529 -0.129204
thorax -9.57092 0.237283 1.25164
lowerneck -8.62345 -12.1226 -17.7833
upperneck 31.3768 -17.9404 10.1267
head 14.9901 -8.94203 4.01419
rclavicle -5.54733e-015 -1.99282e-014
rhumerus -83.3379 36.268 -106.319
rradius 78.6655
rwrist -7.23842
rhand 14.8938 -2.89178
rfingers 7.12502
rthumb 39.7517 -28.1923
lclavicle -5.54733e-015 -1.99282e-014
lhumerus -98.9368 -35.703 120.268
lradius 87.8166
lwrist 15.0137
lhand 15.5481 27.3521
lfingers 7.12502
lthumb 40.3673 52.4663
rfemur -50.4702 13.9879 6.79856
rtibia 35.4242
rfoot -15.1419 -17.6072
rtoes -1.44694
lfemur -42.8847 -7.57178 -23.1885
ltibia 31.3284
lfoot -12.9034 18.2914
ltoes -15.1995
1476
root 5.45038 17.1375 12.9244 -328.235 -22.4631 0.425205
lowerback -15.399 0.232842 -2.45998
upperback -16.6746 0.193796 -0.0799118
thorax -9.55459 0.223652 1.31888
lowerneck -8.5098 -12.1597 -17.8883
upperneck 31.3082 -17.9748 10.0914
head 14.9484 -8.97789 4.01273
rclavicle -2.57985e-014 4.17448e-015
rhumerus -82.3289 36.2244 -105.567
rradius 78.6466
rwrist -6.22869
rhand 14.8445 -2.94519
rfingers 7.12502
rthumb 39.7053 -28.2595
lclavicle -2.57985e-014 4.17448e-015
lhumerus -97.9915 -35.8351 119.356
lradius 87.4469
lwrist 12.8113
lhand 15.7542 26.4331
lfingers 7.12502
lthumb 40.5611 51.4874
rfemur -50.615 14.0858 6.73157
rtibia 35.2439
rfoot -15.0852 -17.6556
rtoes -1.39881
lfemur -43.0206 -7.61443 -23.0797
ltibia 31.2197
lfoot -12.8313 18.4531
ltoes -15.2544
1477
root 5.43576 17.1434 12.9278 -328.081 -22.5509 0.407672
lowerback -15.5326 0.209876 -2.4981
upperback -16.7389 0.16655 -0.0445677
thorax -9.56022 0.215237 1.37714
lowerneck -8.46003 -12.2242 -18.0007
upperneck 31.2834 -18.0464 10.0591
head 14.9501 -9.02689 4.0019
rclavicle -3.07309e-014 1.31198e-014
rhumerus -81.2556 36.0879 -104.719
rradius 78.6699
rwrist -5.19373
rhand 14.5967 -2.87163
rfingers 7.12502
rthumb 39.4719 -28.2548
lclavicle -3.07309e-014 1.31198e-014
lhumerus -96.8709 -36.0009 118.284
lradius 86.9436
lwrist 10.3892
lhand 16.2185 25.401
lfingers 7.12502
lthumb 40.9973 50.3182
rfemur -50.703 14.2234 6.6662
rtibia 35.0803
rfoot -15.0245 -17.7458
rtoes -1.41286
lfemur -43.0854 -7.61637 -23.0011
ltibia 31.1037
lfoot -12.7662 18.5611
ltoes -15.264
1478
root 5.42162 17.1483 12.9268 -328.058 -22.62 0.396955
lowerback -15.5126 0.187895 -2.52699
upperback -16.7795 0.137683 -0.0119308
thorax -9.61999 0.206103 1.42674
lowerneck -8.36263 -12.2638 -18.0704
upperneck 31.2188 -18.0745 9.98407
head 14.9032 -9.05929 3.97928
rclavicle 4.11422e-014 4.85035e-014
rhumerus -80.1457 35.9274 -103.856
rradius 78.6373
rwrist -4.20113
rhand 14.4102 -2.76812
rfingers 7.12502
rthumb 39.2962 -28.2027
lclavicle 4.11422e-014 4.85035e-014
lhumerus -95.6615 -36.2017 117.088
lradius 86.3985
lwrist 7.71598
lhand 17.1591 24.3174
lfingers 7.12502
lthumb 41.8799 48.9476
rfemur -50.6709 14.3906 6.62976
rtibia 34.9359
rfoot -14.9916 -17.8617
rtoes -1.31461
lfemur -43.0176 -7.57212 -22.9591
ltibia 30.975
lfoot -12.6818 18.6162
ltoes -15.3748
1479
root 5.40592 17.1542 12.9266 -328.046 -22.6369 0.432161
lowerback -15.4698 0.138574 -2.60727
upperback -16.8322 0.0761334 0.0215103
thorax -9.70641 0.186722 1.50364
lowerneck -8.27367 -12.3037 -18.1675
upperneck 31.1625 -18.116 9.95817
head 14.8746 -9.09481 3.97782
rclavicle -4.42047e-014 -1.76421e-014
rhumerus -79.0371 35.6904 -102.97
rradius 78.5768
rwrist -2.88847
rhand 14.5752 -3.2136
rfingers 7.12502
rthumb 39.4517 -28.6027
lclavicle -4.42047e-014 -1.76421e-014
lhumerus -94.398 -36.3523 115.856
lradius 85.847
lwrist 5.39239
lhand 17.5393 23.32
lfingers 7.12502
lthumb 42.2362 47.8305
rfemur -50.622 14.5728 6.54198
rtibia 34.8007
rfoot -15.0323 -18.0445
rtoes -1.09579
lfemur -42.953 -7.52767 -22.9533
ltibia 30.8405
lfoot -12.6296 18.5898
ltoes -15.3505
